<?xml version="1.0" encoding="utf-8"?>
<!-- Generator: Adobe Illustrator 24.3.0, SVG Export Plug-In . SVG Version: 6.00 Build 0)  -->
<svg version="1.1" id="Layer_1" xmlns="http://www.w3.org/2000/svg" xmlns:xlink="http://www.w3.org/1999/xlink" x="0px" y="0px"
	 viewBox="0 0 595.28 841.89" style="enable-background:new 0 0 595.28 841.89;" xml:space="preserve">
<style type="text/css">
	.st0{fill:#FFFFFF;}
	.st1{fill:#FFFFFF;stroke:#020203;stroke-width:0.75;stroke-linecap:round;stroke-linejoin:round;stroke-miterlimit:10;}
	.st2{fill:#FFFFFF;stroke:#020203;stroke-width:1.000000e-03;stroke-linecap:round;stroke-linejoin:round;stroke-miterlimit:10;}
</style>
<g id="Logo_Without_Signature_2_">
	<g id="Logo_Without_Signature_1_">
		<g>
			<path class="st0" d="M495.95,393.54c-0.2,3.8-1.07,7.41-2.49,10.73l-0.85,1.84l-2.19,4.74l-1.98,4.28l-34.47,74.44l-0.21,0.44
				l-0.04,0.09c-0.43,1.04-0.7,2.17-0.76,3.36c-0.01,0.18-0.01,0.36-0.01,0.54v42.14h-0.01c0,0.43-0.01,0.87-0.03,1.3
				c-0.07,1.28-0.23,2.53-0.49,3.74c-1.64,7.77-7,14.1-14.05,17.21c-3.43,1.51-7.27,2.26-11.27,2.05c-3.22-0.17-6.26-0.96-9.02-2.23
				c-6.15-2.83-10.89-8.11-13.02-14.52c-0.68-2.07-1.09-4.26-1.19-6.52v-45.06c0-1.45,0.04-2.9,0.11-4.37
				c0.15-2.74,0.42-5.43,0.83-8.09c1.09-7.12,3.11-13.91,5.92-20.27l1.13-2.42l17.48-37.75l-0.01-0.01c0.48-1,0.77-2.11,0.83-3.29
				c0.25-4.57-3.07-8.52-7.54-9.2l-0.44-0.06h-0.01l-2.73-0.35l-169.17-21.59l-34.67-4.42l-0.4-0.05
				c-15.88-2.1-28.1-14.84-29.64-30.43c-0.46-4.88-0.7-9.83-0.7-14.83c0-86.99,70.52-157.51,157.51-157.51
				c72.6,0,133.72,49.11,151.96,115.93c0.38,1.39,0.74,2.79,1.08,4.19c0.24,1.4,0.37,2.84,0.37,4.31c0,14.1-11.44,25.54-25.54,25.54
				c-11.84,0-21.8-8.06-24.69-19c-0.07-0.3-0.15-0.59-0.22-0.89c-11.56-45.87-53.08-79.82-102.54-79.82
				c-53.05,0-96.97,39.06-104.57,90c-0.05,0.3-0.09,0.61-0.14,0.92c-0.03,0.2-0.06,0.4-0.08,0.61c-0.02,0.2-0.03,0.39-0.04,0.59
				c-0.3,5.71,3.52,10.7,8.88,12.11l3.14,0.4l1.13,0.15l194.72,24.85l21.98,2.8l0.28,0.04c11.59,1.52,21.1,9.11,25.41,19.3
				C495.32,383.83,496.22,388.59,495.95,393.54z"/>
		</g>
		<g>
			<path class="st0" d="M352.39,147.67v0.09c-0.04,0.86-0.78,1.52-1.65,1.47c-3-0.13-6.01-0.19-9.04-0.19
				C224.78,149.05,130,243.83,130,360.74c0,88.55,54.37,164.41,131.55,196c0.58,0.25,0.97,0.84,0.93,1.51
				c-0.04,0.86-0.78,1.52-1.65,1.47c-0.05,0-0.1-0.01-0.15-0.01c0,0,0,0-0.01,0c-0.08-0.02-0.16-0.04-0.25-0.06
				c-0.01-0.01-0.03-0.01-0.05-0.02c-92.48-22.67-161.1-106.12-161.1-205.59c0-116.91,94.78-211.69,211.69-211.69
				c13.71,0,27.11,1.31,40.09,3.79C351.81,146.25,352.39,146.9,352.39,147.67z"/>
		</g>
		<g>
			<line class="st0" x1="308.68" y1="600.47" x2="380.55" y2="574.32"/>
			<path class="st0" d="M308.68,615.97c-6.33,0-12.27-3.91-14.56-10.2c-2.93-8.04,1.22-16.93,9.26-19.86l71.86-26.16
				c8.04-2.93,16.93,1.22,19.86,9.26c2.93,8.04-1.22,16.93-9.26,19.86l-71.86,26.16C312.23,615.67,310.44,615.97,308.68,615.97z"/>
		</g>
		<g>
			<line class="st0" x1="345.93" y1="684.05" x2="417.79" y2="657.89"/>
			<path class="st0" d="M345.93,699.55c-6.33,0-12.27-3.91-14.56-10.2c-2.93-8.04,1.22-16.93,9.26-19.86l71.86-26.16
				c8.04-2.93,16.93,1.22,19.86,9.26c2.93,8.04-1.22,16.93-9.26,19.86l-71.86,26.16C349.48,699.24,347.69,699.55,345.93,699.55z"/>
		</g>
		<g>
			<line class="st0" x1="316.67" y1="646.07" x2="425.96" y2="606.29"/>
			<path class="st0" d="M316.67,661.57c-6.33,0-12.27-3.91-14.56-10.2c-2.93-8.04,1.22-16.93,9.26-19.86l109.29-39.78
				c8.04-2.93,16.93,1.22,19.86,9.26c2.93,8.04-1.22,16.93-9.26,19.86l-109.29,39.78C320.22,661.27,318.43,661.57,316.67,661.57z"/>
		</g>
	</g>
	<path class="st1" d="M352.39,147.76c-0.04,0.86-0.78,1.52-1.65,1.47c-0.87-0.04-1.54-0.78-1.49-1.64c0.04-0.87,0.79-1.52,1.66-1.48
		c0.05,0.01,0.1,0.01,0.15,0.02C351.84,146.26,352.44,146.95,352.39,147.76z"/>
	<path class="st2" d="M276.68,562.54c-0.01,0.2-0.18,0.36-0.39,0.35c-0.03,0-0.05-0.01-0.08-0.01c-0.17-0.04-0.29-0.2-0.28-0.37
		c0.01-0.21,0.22-0.35,0.42-0.35c0.01,0.01-0.01,0,0,0C276.55,562.19,276.69,562.35,276.68,562.54z"/>
	<path class="st1" d="M262.48,558.24c-0.04,0.86-0.78,1.52-1.65,1.47c-0.05,0-0.1-0.01-0.15-0.01c0,0,0,0-0.01,0
		c-0.08-0.02-0.16-0.04-0.25-0.06c-0.01-0.01-0.03-0.01-0.05-0.02c-0.63-0.23-1.08-0.85-1.04-1.55c0.04-0.87,0.79-1.52,1.66-1.48
		c0.05,0.01,0.1,0.01,0.15,0.02c0.14,0.02,0.28,0.06,0.4,0.12C262.13,556.99,262.52,557.58,262.48,558.24z"/>
</g>
</svg>
